<mxfile host="app.diagrams.net" agent="Mozilla/5.0 (Windows NT 10.0; Win64; x64) AppleWebKit/537.36 (KHTML, like Gecko) Chrome/129.0.0.0 Safari/537.36" version="24.7.16">
  <diagram name="Page-1" id="-9X853IuhS8LfYrJ5crd">
    <mxGraphModel dx="734" dy="455" grid="1" gridSize="10" guides="1" tooltips="1" connect="1" arrows="1" fold="1" page="1" pageScale="1" pageWidth="827" pageHeight="1169" math="0" shadow="0">
      <root>
        <mxCell id="0" />
        <mxCell id="1" parent="0" />
        <mxCell id="rYWm2HRdWR68briujEV--1" value="HTTP/HTTPS or FTP Download Supported" style="rounded=0;whiteSpace=wrap;html=1;" parent="1" vertex="1">
          <mxGeometry x="120" y="90" width="120" height="60" as="geometry" />
        </mxCell>
        <mxCell id="rYWm2HRdWR68briujEV--2" value="Wget respects robots.txt while recursive cloning of webpages" style="rounded=0;whiteSpace=wrap;html=1;" parent="1" vertex="1">
          <mxGeometry x="240" y="90" width="120" height="60" as="geometry" />
        </mxCell>
        <mxCell id="rYWm2HRdWR68briujEV--3" value="Respects range requests for resource downloads" style="rounded=0;whiteSpace=wrap;html=1;" parent="1" vertex="1">
          <mxGeometry x="360" y="90" width="120" height="60" as="geometry" />
        </mxCell>
        <mxCell id="rYWm2HRdWR68briujEV--4" value="Can automatically try again if a download fails" style="rounded=0;whiteSpace=wrap;html=1;" parent="1" vertex="1">
          <mxGeometry x="480" y="90" width="120" height="60" as="geometry" />
        </mxCell>
        <mxCell id="rYWm2HRdWR68briujEV--5" value="Supports GNU options so has both&amp;nbsp;&lt;div&gt;short and long options&lt;/div&gt;" style="rounded=0;whiteSpace=wrap;html=1;" parent="1" vertex="1">
          <mxGeometry y="90" width="120" height="60" as="geometry" />
        </mxCell>
        <mxCell id="rYWm2HRdWR68briujEV--6" value="tries flag&amp;nbsp;&lt;div&gt;Specifies the maximum number of tries&lt;/div&gt;" style="rounded=0;whiteSpace=wrap;html=1;fillColor=#d5e8d4;strokeColor=#82b366;" parent="1" vertex="1">
          <mxGeometry x="140" y="190" width="120" height="60" as="geometry" />
        </mxCell>
        <mxCell id="rYWm2HRdWR68briujEV--9" value="" style="edgeStyle=orthogonalEdgeStyle;rounded=0;orthogonalLoop=1;jettySize=auto;html=1;" parent="1" source="rYWm2HRdWR68briujEV--7" target="rYWm2HRdWR68briujEV--8" edge="1">
          <mxGeometry relative="1" as="geometry" />
        </mxCell>
        <mxCell id="rYWm2HRdWR68briujEV--7" value="-o flag&lt;div&gt;Path of the log file&lt;/div&gt;" style="rounded=0;whiteSpace=wrap;html=1;fillColor=#dae8fc;strokeColor=#6c8ebf;" parent="1" vertex="1">
          <mxGeometry x="260" y="190" width="120" height="60" as="geometry" />
        </mxCell>
        <mxCell id="rYWm2HRdWR68briujEV--8" value="-a flag&lt;div&gt;Append to the log file.&lt;/div&gt;&lt;div&gt;Log file must exist&lt;/div&gt;" style="rounded=0;whiteSpace=wrap;html=1;fillColor=#dae8fc;strokeColor=#6c8ebf;" parent="1" vertex="1">
          <mxGeometry x="260" y="300" width="120" height="60" as="geometry" />
        </mxCell>
        <mxCell id="rYWm2HRdWR68briujEV--12" value="" style="edgeStyle=orthogonalEdgeStyle;rounded=0;orthogonalLoop=1;jettySize=auto;html=1;" parent="1" source="rYWm2HRdWR68briujEV--10" target="rYWm2HRdWR68briujEV--11" edge="1">
          <mxGeometry relative="1" as="geometry" />
        </mxCell>
        <mxCell id="rYWm2HRdWR68briujEV--10" value="No logs.. Turn on quiet mode" style="rounded=0;whiteSpace=wrap;html=1;fillColor=#fff2cc;strokeColor=#d6b656;" parent="1" vertex="1">
          <mxGeometry x="380" y="190" width="120" height="60" as="geometry" />
        </mxCell>
        <mxCell id="rYWm2HRdWR68briujEV--11" value="-q flag&amp;nbsp;&lt;div&gt;Turns off the wget logs&lt;/div&gt;" style="whiteSpace=wrap;html=1;rounded=0;fillColor=#fff2cc;strokeColor=#d6b656;" parent="1" vertex="1">
          <mxGeometry x="414" y="300" width="120" height="60" as="geometry" />
        </mxCell>
        <mxCell id="rYWm2HRdWR68briujEV--13" value="Verbose Logs&lt;div&gt;-v flag&lt;/div&gt;" style="rounded=0;whiteSpace=wrap;html=1;fillColor=#f8cecc;strokeColor=#b85450;" parent="1" vertex="1">
          <mxGeometry x="500" y="190" width="120" height="60" as="geometry" />
        </mxCell>
        <mxCell id="rYWm2HRdWR68briujEV--14" value="No verbose&amp;nbsp;&lt;div&gt;&lt;span style=&quot;background-color: rgb(153, 153, 255);&quot;&gt;-nv flag&lt;/span&gt;&amp;nbsp;&lt;/div&gt;&lt;div&gt;Not quite and not verbose&lt;/div&gt;" style="rounded=0;whiteSpace=wrap;html=1;" parent="1" vertex="1">
          <mxGeometry x="620" y="190" width="120" height="60" as="geometry" />
        </mxCell>
        <mxCell id="rYWm2HRdWR68briujEV--15" value="Debug mode&lt;div&gt;&lt;span style=&quot;background-color: rgb(234, 107, 102);&quot;&gt;-d flag&lt;/span&gt;&lt;/div&gt;&lt;div&gt;&lt;span style=&quot;background-color: rgb(234, 107, 102);&quot;&gt;--debug&lt;/span&gt;&lt;/div&gt;" style="rounded=0;whiteSpace=wrap;html=1;" parent="1" vertex="1">
          <mxGeometry x="600" y="90" width="80" height="60" as="geometry" />
        </mxCell>
        <mxCell id="rYWm2HRdWR68briujEV--18" value="" style="edgeStyle=orthogonalEdgeStyle;rounded=0;orthogonalLoop=1;jettySize=auto;html=1;" parent="1" source="rYWm2HRdWR68briujEV--16" target="rYWm2HRdWR68briujEV--17" edge="1">
          <mxGeometry relative="1" as="geometry" />
        </mxCell>
        <mxCell id="rYWm2HRdWR68briujEV--16" value="MetaLink file" style="rounded=0;whiteSpace=wrap;html=1;" parent="1" vertex="1">
          <mxGeometry x="740" y="190" width="80" height="60" as="geometry" />
        </mxCell>
        <mxCell id="rYWm2HRdWR68briujEV--17" value="&lt;span style=&quot;background-color: rgb(126, 166, 224);&quot;&gt;--input-metalink&lt;/span&gt;&lt;div&gt;&lt;div&gt;flag to give link to MetaLink file containing hashes&lt;/div&gt;&lt;/div&gt;" style="whiteSpace=wrap;html=1;rounded=0;" parent="1" vertex="1">
          <mxGeometry x="690" y="280" width="120" height="80" as="geometry" />
        </mxCell>
        <mxCell id="rYWm2HRdWR68briujEV--19" value="&lt;div&gt;&lt;span style=&quot;background-color: rgb(0, 204, 102);&quot;&gt;--metalink-over-http&lt;/span&gt;&lt;/div&gt;&lt;div&gt;&amp;nbsp; &amp;nbsp; &amp;nbsp; &amp;nbsp; &amp;nbsp; &amp;nbsp;Issues HTTP HEAD request instead of GET and extracts Metalink metadata from response headers. Then&lt;/div&gt;&lt;div&gt;&amp;nbsp; &amp;nbsp; &amp;nbsp; &amp;nbsp; &amp;nbsp; &amp;nbsp;it switches to Metalink download.&amp;nbsp; If no valid Metalink metadata is found, it falls back to ordinary&lt;/div&gt;&lt;div&gt;&amp;nbsp; &amp;nbsp; &amp;nbsp; &amp;nbsp; &amp;nbsp; &amp;nbsp;HTTP download.&lt;/div&gt;" style="rounded=0;whiteSpace=wrap;html=1;" parent="1" vertex="1">
          <mxGeometry x="10" y="400" width="810" height="60" as="geometry" />
        </mxCell>
        <mxCell id="rYWm2HRdWR68briujEV--20" value="Clobbing in wget" style="rounded=0;whiteSpace=wrap;html=1;" parent="1" vertex="1">
          <mxGeometry y="500" width="120" height="60" as="geometry" />
        </mxCell>
        <mxCell id="rYWm2HRdWR68briujEV--23" value="" style="edgeStyle=orthogonalEdgeStyle;rounded=0;orthogonalLoop=1;jettySize=auto;html=1;" parent="1" source="rYWm2HRdWR68briujEV--21" target="rYWm2HRdWR68briujEV--22" edge="1">
          <mxGeometry relative="1" as="geometry" />
        </mxCell>
        <mxCell id="rYWm2HRdWR68briujEV--21" value="Specify the output location of the file" style="rounded=0;whiteSpace=wrap;html=1;" parent="1" vertex="1">
          <mxGeometry x="20" y="190" width="120" height="60" as="geometry" />
        </mxCell>
        <mxCell id="rYWm2HRdWR68briujEV--22" value="&lt;span style=&quot;background-color: rgb(51, 153, 255);&quot;&gt;-O flag&lt;/span&gt;&lt;div&gt;Works similar to input redirection&lt;/div&gt;" style="whiteSpace=wrap;html=1;rounded=0;" parent="1" vertex="1">
          <mxGeometry x="20" y="270" width="120" height="60" as="geometry" />
        </mxCell>
        <mxCell id="rYWm2HRdWR68briujEV--24" value="&lt;div&gt;&amp;nbsp;&lt;span style=&quot;background-color: rgb(103, 171, 159);&quot;&gt;-x flag&lt;/span&gt;&lt;/div&gt;&lt;div&gt;&amp;nbsp; &amp;nbsp; &amp;nbsp; &amp;nbsp;--force-directories&lt;/div&gt;&lt;div&gt;&amp;nbsp; &amp;nbsp; &amp;nbsp; &amp;nbsp; &amp;nbsp; &amp;nbsp;The opposite of -nd---create a hierarchy of directories, even if one would not have been created&lt;/div&gt;&lt;div&gt;&amp;nbsp; &amp;nbsp; &amp;nbsp; &amp;nbsp; &amp;nbsp; &amp;nbsp;otherwise.&amp;nbsp; E.g. wget -x http://fly.srk.fer.hr/robots.txt will save the downloaded file to&lt;/div&gt;&lt;div&gt;&amp;nbsp; &amp;nbsp; &amp;nbsp; &amp;nbsp; &amp;nbsp; &amp;nbsp;fly.srk.fer.hr/robots.txt.&lt;/div&gt;" style="rounded=0;whiteSpace=wrap;html=1;" parent="1" vertex="1">
          <mxGeometry x="9" y="600" width="810" height="90" as="geometry" />
        </mxCell>
        <mxCell id="cQSFOSjzq-KW8z61xNaQ-1" value="Configure wget file-&lt;div&gt;.wgetrc&lt;/div&gt;" style="rounded=0;whiteSpace=wrap;html=1;" parent="1" vertex="1">
          <mxGeometry x="160" y="500" width="120" height="60" as="geometry" />
        </mxCell>
        <mxCell id="cQSFOSjzq-KW8z61xNaQ-4" value="" style="edgeStyle=orthogonalEdgeStyle;rounded=0;orthogonalLoop=1;jettySize=auto;html=1;" parent="1" source="cQSFOSjzq-KW8z61xNaQ-2" target="cQSFOSjzq-KW8z61xNaQ-3" edge="1">
          <mxGeometry relative="1" as="geometry" />
        </mxCell>
        <mxCell id="cQSFOSjzq-KW8z61xNaQ-2" value="Configure wget" style="rounded=0;whiteSpace=wrap;html=1;" parent="1" vertex="1">
          <mxGeometry x="10" y="710" width="120" height="60" as="geometry" />
        </mxCell>
        <mxCell id="cQSFOSjzq-KW8z61xNaQ-3" value="Default configuration of wget is present at&lt;div&gt;&lt;span style=&quot;background-color: rgb(102, 178, 255);&quot;&gt;/etc/wgetrc&lt;/span&gt;&lt;/div&gt;" style="whiteSpace=wrap;html=1;rounded=0;" parent="1" vertex="1">
          <mxGeometry x="10" y="810" width="120" height="60" as="geometry" />
        </mxCell>
        <mxCell id="cQSFOSjzq-KW8z61xNaQ-7" value="" style="edgeStyle=orthogonalEdgeStyle;rounded=0;orthogonalLoop=1;jettySize=auto;html=1;" parent="1" source="cQSFOSjzq-KW8z61xNaQ-5" target="cQSFOSjzq-KW8z61xNaQ-6" edge="1">
          <mxGeometry relative="1" as="geometry" />
        </mxCell>
        <mxCell id="cQSFOSjzq-KW8z61xNaQ-5" value="Configure wget&amp;nbsp;&lt;div&gt;in other locations&lt;/div&gt;" style="rounded=0;whiteSpace=wrap;html=1;" parent="1" vertex="1">
          <mxGeometry x="160" y="710" width="120" height="60" as="geometry" />
        </mxCell>
        <mxCell id="cQSFOSjzq-KW8z61xNaQ-6" value="Override configuration at&amp;nbsp;&lt;div&gt;&lt;span style=&quot;background-color: rgb(77, 153, 0);&quot;&gt;~/.wgetrc&lt;/span&gt;&lt;/div&gt;" style="whiteSpace=wrap;html=1;rounded=0;" parent="1" vertex="1">
          <mxGeometry x="160" y="810" width="120" height="60" as="geometry" />
        </mxCell>
        <mxCell id="gqXW6iikmgXD67tOc7KV-3" value="" style="edgeStyle=orthogonalEdgeStyle;rounded=0;orthogonalLoop=1;jettySize=auto;html=1;" parent="1" source="gqXW6iikmgXD67tOc7KV-1" target="gqXW6iikmgXD67tOc7KV-2" edge="1">
          <mxGeometry relative="1" as="geometry" />
        </mxCell>
        <mxCell id="gqXW6iikmgXD67tOc7KV-1" value="Set download directory" style="rounded=0;whiteSpace=wrap;html=1;" parent="1" vertex="1">
          <mxGeometry x="320" y="710" width="120" height="60" as="geometry" />
        </mxCell>
        <mxCell id="gqXW6iikmgXD67tOc7KV-2" value="&lt;span style=&quot;background-color: rgb(102, 255, 179);&quot;&gt;dir_prefix&lt;/span&gt;&lt;div&gt;in .wget configuration&lt;/div&gt;" style="whiteSpace=wrap;html=1;rounded=0;" parent="1" vertex="1">
          <mxGeometry x="320" y="810" width="120" height="60" as="geometry" />
        </mxCell>
        <mxCell id="gqXW6iikmgXD67tOc7KV-6" value="" style="edgeStyle=orthogonalEdgeStyle;rounded=0;orthogonalLoop=1;jettySize=auto;html=1;" parent="1" source="gqXW6iikmgXD67tOc7KV-4" target="gqXW6iikmgXD67tOc7KV-5" edge="1">
          <mxGeometry relative="1" as="geometry" />
        </mxCell>
        <mxCell id="gqXW6iikmgXD67tOc7KV-4" value="Enable recursive&lt;div&gt;downloads&lt;/div&gt;" style="rounded=0;whiteSpace=wrap;html=1;" parent="1" vertex="1">
          <mxGeometry x="460" y="710" width="120" height="60" as="geometry" />
        </mxCell>
        <mxCell id="gqXW6iikmgXD67tOc7KV-8" value="" style="edgeStyle=orthogonalEdgeStyle;rounded=0;orthogonalLoop=1;jettySize=auto;html=1;" parent="1" source="gqXW6iikmgXD67tOc7KV-5" target="gqXW6iikmgXD67tOc7KV-7" edge="1">
          <mxGeometry relative="1" as="geometry" />
        </mxCell>
        <mxCell id="gqXW6iikmgXD67tOc7KV-5" value="&lt;span style=&quot;background-color: rgb(103, 171, 159);&quot;&gt;recursive&lt;/span&gt;&lt;div&gt;in .wget configuration&lt;/div&gt;" style="whiteSpace=wrap;html=1;rounded=0;" parent="1" vertex="1">
          <mxGeometry x="460" y="810" width="120" height="60" as="geometry" />
        </mxCell>
        <mxCell id="gqXW6iikmgXD67tOc7KV-7" value="Set recursive depth&lt;div&gt;use &lt;span style=&quot;background-color: rgb(103, 171, 159);&quot;&gt;level&lt;/span&gt; key&lt;/div&gt;" style="whiteSpace=wrap;html=1;rounded=0;" parent="1" vertex="1">
          <mxGeometry x="460" y="890" width="120" height="60" as="geometry" />
        </mxCell>
        <mxCell id="gqXW6iikmgXD67tOc7KV-11" value="" style="edgeStyle=orthogonalEdgeStyle;rounded=0;orthogonalLoop=1;jettySize=auto;html=1;" parent="1" source="gqXW6iikmgXD67tOc7KV-9" target="gqXW6iikmgXD67tOc7KV-10" edge="1">
          <mxGeometry relative="1" as="geometry" />
        </mxCell>
        <mxCell id="gqXW6iikmgXD67tOc7KV-9" value="Specify the maximum number of times" style="rounded=0;whiteSpace=wrap;html=1;" parent="1" vertex="1">
          <mxGeometry x="590" y="710" width="120" height="60" as="geometry" />
        </mxCell>
        <mxCell id="gqXW6iikmgXD67tOc7KV-10" value="&lt;span style=&quot;background-color: rgb(103, 171, 159);&quot;&gt;tries&lt;/span&gt;=Specify the number of tries&lt;div&gt;&lt;br&gt;&lt;/div&gt;" style="whiteSpace=wrap;html=1;rounded=0;" parent="1" vertex="1">
          <mxGeometry x="590" y="810" width="120" height="60" as="geometry" />
        </mxCell>
        <mxCell id="gqXW6iikmgXD67tOc7KV-14" value="" style="edgeStyle=orthogonalEdgeStyle;rounded=0;orthogonalLoop=1;jettySize=auto;html=1;" parent="1" source="gqXW6iikmgXD67tOc7KV-12" target="gqXW6iikmgXD67tOc7KV-13" edge="1">
          <mxGeometry relative="1" as="geometry" />
        </mxCell>
        <mxCell id="gqXW6iikmgXD67tOc7KV-12" value="Set connection timeout" style="rounded=0;whiteSpace=wrap;html=1;" parent="1" vertex="1">
          <mxGeometry x="730" y="710" width="120" height="60" as="geometry" />
        </mxCell>
        <mxCell id="gqXW6iikmgXD67tOc7KV-13" value="&lt;span style=&quot;background-color: rgb(103, 171, 159);&quot;&gt;timeout&lt;/span&gt; key" style="whiteSpace=wrap;html=1;rounded=0;" parent="1" vertex="1">
          <mxGeometry x="730" y="810" width="120" height="60" as="geometry" />
        </mxCell>
        <mxCell id="gqXW6iikmgXD67tOc7KV-15" value="Authenticate with user and password" style="rounded=0;whiteSpace=wrap;html=1;" parent="1" vertex="1">
          <mxGeometry x="10" y="940" width="120" height="60" as="geometry" />
        </mxCell>
        <mxCell id="Er8VsGTngwafFj7Bn613-3" value="" style="edgeStyle=orthogonalEdgeStyle;rounded=0;orthogonalLoop=1;jettySize=auto;html=1;" parent="1" source="Er8VsGTngwafFj7Bn613-1" target="Er8VsGTngwafFj7Bn613-2" edge="1">
          <mxGeometry relative="1" as="geometry" />
        </mxCell>
        <mxCell id="Er8VsGTngwafFj7Bn613-1" value="Passive FTP&lt;div&gt;&lt;span style=&quot;background-color: rgb(234, 107, 102);&quot;&gt;--passive-ftp &lt;/span&gt;flag&lt;/div&gt;" style="rounded=0;whiteSpace=wrap;html=1;" parent="1" vertex="1">
          <mxGeometry x="950" y="160" width="120" height="60" as="geometry" />
        </mxCell>
        <mxCell id="Er8VsGTngwafFj7Bn613-2" value="sudo wget --passive-ftp ftp://192.168.75.247:2221&amp;nbsp; --user android --password android -O /home/samarth/Recordings" style="whiteSpace=wrap;html=1;rounded=0;" parent="1" vertex="1">
          <mxGeometry x="880" y="260" width="260" height="60" as="geometry" />
        </mxCell>
        <mxCell id="Er8VsGTngwafFj7Bn613-4" value="&lt;span style=&quot;background-color: rgb(234, 107, 102);&quot;&gt;-r flag&amp;nbsp;&lt;/span&gt;&lt;div&gt;Recursive Downloads&lt;/div&gt;" style="rounded=0;whiteSpace=wrap;html=1;" parent="1" vertex="1">
          <mxGeometry x="150" y="940" width="120" height="60" as="geometry" />
        </mxCell>
        <mxCell id="Er8VsGTngwafFj7Bn613-5" value="Specify path to the Downloaded folder&lt;div&gt;Use &lt;span style=&quot;background-color: rgb(255, 153, 204);&quot;&gt;-P flag &amp;lt;path&amp;gt;&lt;/span&gt;&lt;/div&gt;" style="rounded=0;whiteSpace=wrap;html=1;" parent="1" vertex="1">
          <mxGeometry x="680" y="90" width="120" height="60" as="geometry" />
        </mxCell>
        <mxCell id="Er8VsGTngwafFj7Bn613-6" value="&lt;span style=&quot;background-color: rgb(234, 107, 102);&quot;&gt;--user&lt;/span&gt; flag&lt;div&gt;set the username of&amp;nbsp; server&lt;/div&gt;" style="rounded=0;whiteSpace=wrap;html=1;" parent="1" vertex="1">
          <mxGeometry x="329" y="500" width="120" height="60" as="geometry" />
        </mxCell>
        <mxCell id="Er8VsGTngwafFj7Bn613-7" value="&lt;span style=&quot;background-color: rgb(234, 107, 102);&quot;&gt;--password&lt;/span&gt;&amp;nbsp;flag&lt;div&gt;set the password of server&lt;/div&gt;" style="rounded=0;whiteSpace=wrap;html=1;" parent="1" vertex="1">
          <mxGeometry x="470" y="500" width="120" height="60" as="geometry" />
        </mxCell>
        <mxCell id="-b_9_V1KJLMPMeQgucEA-3" value="" style="edgeStyle=orthogonalEdgeStyle;rounded=0;orthogonalLoop=1;jettySize=auto;html=1;" edge="1" parent="1" source="-b_9_V1KJLMPMeQgucEA-1" target="-b_9_V1KJLMPMeQgucEA-2">
          <mxGeometry relative="1" as="geometry" />
        </mxCell>
        <mxCell id="-b_9_V1KJLMPMeQgucEA-4" value="Valid" style="edgeLabel;html=1;align=center;verticalAlign=middle;resizable=0;points=[];" vertex="1" connectable="0" parent="-b_9_V1KJLMPMeQgucEA-3">
          <mxGeometry x="-0.15" y="-1" relative="1" as="geometry">
            <mxPoint as="offset" />
          </mxGeometry>
        </mxCell>
        <mxCell id="-b_9_V1KJLMPMeQgucEA-6" value="" style="edgeStyle=orthogonalEdgeStyle;rounded=0;orthogonalLoop=1;jettySize=auto;html=1;" edge="1" parent="1" source="-b_9_V1KJLMPMeQgucEA-1" target="-b_9_V1KJLMPMeQgucEA-5">
          <mxGeometry relative="1" as="geometry" />
        </mxCell>
        <mxCell id="-b_9_V1KJLMPMeQgucEA-7" value="Invalid" style="edgeLabel;html=1;align=center;verticalAlign=middle;resizable=0;points=[];" vertex="1" connectable="0" parent="-b_9_V1KJLMPMeQgucEA-6">
          <mxGeometry x="-0.325" y="1" relative="1" as="geometry">
            <mxPoint as="offset" />
          </mxGeometry>
        </mxCell>
        <mxCell id="-b_9_V1KJLMPMeQgucEA-1" value="Validate wgetrc file" style="rounded=1;whiteSpace=wrap;html=1;" vertex="1" parent="1">
          <mxGeometry x="209" y="10" width="120" height="60" as="geometry" />
        </mxCell>
        <mxCell id="-b_9_V1KJLMPMeQgucEA-2" value="&lt;span style=&quot;background-color: rgb(103, 171, 159);&quot;&gt;sudo wget --config /etc/wgetrc&lt;/span&gt;&lt;div&gt;return no error&lt;/div&gt;" style="whiteSpace=wrap;html=1;rounded=1;" vertex="1" parent="1">
          <mxGeometry x="409" y="10" width="120" height="60" as="geometry" />
        </mxCell>
        <mxCell id="-b_9_V1KJLMPMeQgucEA-5" value="&lt;span style=&quot;background-color: rgb(103, 171, 159);&quot;&gt;sudo wget --config /etc/wgetrc&lt;/span&gt;&lt;div&gt;return errors&lt;/div&gt;" style="whiteSpace=wrap;html=1;rounded=1;" vertex="1" parent="1">
          <mxGeometry x="9" y="10" width="120" height="60" as="geometry" />
        </mxCell>
        <mxCell id="-b_9_V1KJLMPMeQgucEA-8" value="Recursive Download&lt;div&gt;&lt;span style=&quot;background-color: rgb(153, 255, 204);&quot;&gt;-r flag&lt;/span&gt;&lt;/div&gt;" style="rounded=0;whiteSpace=wrap;html=1;" vertex="1" parent="1">
          <mxGeometry x="590" y="10" width="120" height="60" as="geometry" />
        </mxCell>
        <mxCell id="-b_9_V1KJLMPMeQgucEA-9" value="Path of downloaded&amp;nbsp;&lt;div&gt;resource&lt;/div&gt;&lt;div&gt;&lt;span style=&quot;background-color: rgb(153, 204, 255);&quot;&gt;-P flag&lt;/span&gt;&lt;/div&gt;" style="rounded=0;whiteSpace=wrap;html=1;" vertex="1" parent="1">
          <mxGeometry x="720" y="10" width="120" height="60" as="geometry" />
        </mxCell>
        <mxCell id="-b_9_V1KJLMPMeQgucEA-10" value="Override dns servers at &lt;span style=&quot;background-color: rgb(234, 107, 102);&quot;&gt;/etc/resolv.conf&lt;/span&gt;&lt;div&gt;&lt;span style=&quot;background-color: initial;&quot;&gt;&amp;nbsp;&lt;/span&gt;&lt;span style=&quot;background-color: rgb(0, 204, 0);&quot;&gt;--dns-servers=ADDRESSES&lt;/span&gt;&lt;br&gt;&lt;/div&gt;" style="rounded=1;whiteSpace=wrap;html=1;" vertex="1" parent="1">
          <mxGeometry x="530" y="290" width="160" height="60" as="geometry" />
        </mxCell>
        <mxCell id="-b_9_V1KJLMPMeQgucEA-11" value="FIle Clobbing will not occur if using the&lt;div&gt;&lt;span style=&quot;background-color: rgb(0, 204, 0);&quot;&gt;-p or -r flag&lt;/span&gt;&lt;/div&gt;" style="rounded=0;whiteSpace=wrap;html=1;" vertex="1" parent="1">
          <mxGeometry x="960" y="470" width="120" height="60" as="geometry" />
        </mxCell>
        <mxCell id="-b_9_V1KJLMPMeQgucEA-12" value="&lt;span style=&quot;background-color: rgb(204, 153, 255);&quot;&gt;-p flag&lt;/span&gt;&lt;div&gt;Download all page requisites to display HTML properly&lt;/div&gt;" style="rounded=0;whiteSpace=wrap;html=1;" vertex="1" parent="1">
          <mxGeometry x="930" y="50" width="120" height="60" as="geometry" />
        </mxCell>
        <mxCell id="-b_9_V1KJLMPMeQgucEA-13" value="&lt;div class=&quot;flex-shrink-0 flex flex-col relative items-end&quot;&gt;&lt;div class=&quot;pt-0&quot;&gt;&lt;div class=&quot;gizmo-bot-avatar flex h-8 w-8 items-center justify-center overflow-hidden rounded-full&quot;&gt;&lt;div class=&quot;relative p-1 rounded-sm flex items-center justify-center bg-token-main-surface-primary text-token-text-primary h-8 w-8&quot;&gt;&lt;svg role=&quot;img&quot; class=&quot;icon-md&quot; xmlns=&quot;http://www.w3.org/2000/svg&quot; fill=&quot;none&quot; viewBox=&quot;0 0 41 41&quot; height=&quot;41&quot; width=&quot;41&quot;&gt;&lt;text y=&quot;-9999&quot; x=&quot;-9999&quot;&gt;&lt;/text&gt;&lt;path fill=&quot;currentColor&quot; d=&quot;M37.5324 16.8707C37.9808 15.5241 38.1363 14.0974 37.9886 12.6859C37.8409 11.2744 37.3934 9.91076 36.676 8.68622C35.6126 6.83404 33.9882 5.3676 32.0373 4.4985C30.0864 3.62941 27.9098 3.40259 25.8215 3.85078C24.8796 2.7893 23.7219 1.94125 22.4257 1.36341C21.1295 0.785575 19.7249 0.491269 18.3058 0.500197C16.1708 0.495044 14.0893 1.16803 12.3614 2.42214C10.6335 3.67624 9.34853 5.44666 8.6917 7.47815C7.30085 7.76286 5.98686 8.3414 4.8377 9.17505C3.68854 10.0087 2.73073 11.0782 2.02839 12.312C0.956464 14.1591 0.498905 16.2988 0.721698 18.4228C0.944492 20.5467 1.83612 22.5449 3.268 24.1293C2.81966 25.4759 2.66413 26.9026 2.81182 28.3141C2.95951 29.7256 3.40701 31.0892 4.12437 32.3138C5.18791 34.1659 6.8123 35.6322 8.76321 36.5013C10.7141 37.3704 12.8907 37.5973 14.9789 37.1492C15.9208 38.2107 17.0786 39.0587 18.3747 39.6366C19.6709 40.2144 21.0755 40.5087 22.4946 40.4998C24.6307 40.5054 26.7133 39.8321 28.4418 38.5772C30.1704 37.3223 31.4556 35.5506 32.1119 33.5179C33.5027 33.2332 34.8167 32.6547 35.9659 31.821C37.115 30.9874 38.0728 29.9178 38.7752 28.684C39.8458 26.8371 40.3023 24.6979 40.0789 22.5748C39.8556 20.4517 38.9639 18.4544 37.5324 16.8707ZM22.4978 37.8849C20.7443 37.8874 19.0459 37.2733 17.6994 36.1501C17.7601 36.117 17.8666 36.0586 17.936 36.0161L25.9004 31.4156C26.1003 31.3019 26.2663 31.137 26.3813 30.9378C26.4964 30.7386 26.5563 30.5124 26.5549 30.2825V19.0542L29.9213 20.998C29.9389 21.0068 29.9541 21.0198 29.9656 21.0359C29.977 21.052 29.9842 21.0707 29.9867 21.0902V30.3889C29.9842 32.375 29.1946 34.2791 27.7909 35.6841C26.3872 37.0892 24.4838 37.8806 22.4978 37.8849ZM6.39227 31.0064C5.51397 29.4888 5.19742 27.7107 5.49804 25.9832C5.55718 26.0187 5.66048 26.0818 5.73461 26.1244L13.699 30.7248C13.8975 30.8408 14.1233 30.902 14.3532 30.902C14.583 30.902 14.8088 30.8408 15.0073 30.7248L24.731 25.1103V28.9979C24.7321 29.0177 24.7283 29.0376 24.7199 29.0556C24.7115 29.0736 24.6988 29.0893 24.6829 29.1012L16.6317 33.7497C14.9096 34.7416 12.8643 35.0097 10.9447 34.4954C9.02506 33.9811 7.38785 32.7263 6.39227 31.0064ZM4.29707 13.6194C5.17156 12.0998 6.55279 10.9364 8.19885 10.3327C8.19885 10.4013 8.19491 10.5228 8.19491 10.6071V19.808C8.19351 20.0378 8.25334 20.2638 8.36823 20.4629C8.48312 20.6619 8.64893 20.8267 8.84863 20.9404L18.5723 26.5542L15.206 28.4979C15.1894 28.5089 15.1703 28.5155 15.1505 28.5173C15.1307 28.5191 15.1107 28.516 15.0924 28.5082L7.04046 23.8557C5.32135 22.8601 4.06716 21.2235 3.55289 19.3046C3.03862 17.3858 3.30624 15.3413 4.29707 13.6194ZM31.955 20.0556L22.2312 14.4411L25.5976 12.4981C25.6142 12.4872 25.6333 12.4805 25.6531 12.4787C25.6729 12.4769 25.6928 12.4801 25.7111 12.4879L33.7631 17.1364C34.9967 17.849 36.0017 18.8982 36.6606 20.1613C37.3194 21.4244 37.6047 22.849 37.4832 24.2684C37.3617 25.6878 36.8382 27.0432 35.9743 28.1759C35.1103 29.3086 33.9415 30.1717 32.6047 30.6641C32.6047 30.5947 32.6047 30.4733 32.6047 30.3889V21.188C32.6066 20.9586 32.5474 20.7328 32.4332 20.5338C32.319 20.3348 32.154 20.1698 31.955 20.0556ZM35.3055 15.0128C35.2464 14.9765 35.1431 14.9142 35.069 14.8717L27.1045 10.2712C26.906 10.1554 26.6803 10.0943 26.4504 10.0943C26.2206 10.0943 25.9948 10.1554 25.7963 10.2712L16.0726 15.8858V11.9982C16.0715 11.9783 16.0753 11.9585 16.0837 11.9405C16.0921 11.9225 16.1048 11.9068 16.1207 11.8949L24.1719 7.25025C25.4053 6.53903 26.8158 6.19376 28.2383 6.25482C29.6608 6.31589 31.0364 6.78077 32.2044 7.59508C33.3723 8.40939 34.2842 9.53945 34.8334 10.8531C35.3826 12.1667 35.5464 13.6095 35.3055 15.0128ZM14.2424 21.9419L10.8752 19.9981C10.8576 19.9893 10.8423 19.9763 10.8309 19.9602C10.8195 19.9441 10.8122 19.9254 10.8098 19.9058V10.6071C10.8107 9.18295 11.2173 7.78848 11.9819 6.58696C12.7466 5.38544 13.8377 4.42659 15.1275 3.82264C16.4173 3.21869 17.8524 2.99464 19.2649 3.1767C20.6775 3.35876 22.0089 3.93941 23.1034 4.85067C23.0427 4.88379 22.937 4.94215 22.8668 4.98473L14.9024 9.58517C14.7025 9.69878 14.5366 9.86356 14.4215 10.0626C14.3065 10.2616 14.2466 10.4877 14.2479 10.7175L14.2424 21.9419ZM16.071 17.9991L20.4018 15.4978L24.7325 17.9975V22.9985L20.4018 25.4983L16.071 22.9985V17.9991Z&quot;&gt;&lt;/path&gt;&lt;/svg&gt;&lt;/div&gt;&lt;/div&gt;&lt;/div&gt;&lt;/div&gt;&lt;div class=&quot;group/conversation-turn relative flex w-full min-w-0 flex-col agent-turn&quot;&gt;&lt;div class=&quot;flex-col gap-1 md:gap-3&quot;&gt;&lt;div class=&quot;flex max-w-full flex-col flex-grow&quot;&gt;&lt;div class=&quot;min-h-8 text-message flex w-full flex-col items-end gap-2 whitespace-normal break-words [.text-message+&amp;amp;]:mt-5&quot; dir=&quot;auto&quot; data-message-id=&quot;8d057fe3-c3f9-4965-bbea-3d5d46b6ec27&quot; data-message-author-role=&quot;assistant&quot;&gt;&lt;div class=&quot;flex w-full flex-col gap-1 empty:hidden first:pt-[3px]&quot;&gt;&lt;div class=&quot;markdown prose w-full break-words dark:prose-invert dark&quot;&gt;&lt;p&gt;The &lt;code&gt;--adjust-extension&lt;/code&gt; option in &lt;code&gt;wget&lt;/code&gt; is used to automatically add the &lt;code&gt;.html&lt;/code&gt; extension to files that are recognized as HTML pages but do not have an &lt;code&gt;.html&lt;/code&gt; (or &lt;code&gt;.htm&lt;/code&gt;) extension in the URL.&lt;/p&gt;&lt;h3&gt;When is &lt;code&gt;--adjust-extension&lt;/code&gt; useful?&lt;/h3&gt;&lt;ol&gt;&lt;li&gt;&lt;p&gt;&lt;strong&gt;Non-standard URLs for HTML files&lt;/strong&gt;:&lt;br/&gt;Many web servers serve HTML pages using URLs that don’t end in &lt;code&gt;.html&lt;/code&gt; or &lt;code&gt;.htm&lt;/code&gt;, such as &lt;code&gt;.php&lt;/code&gt;, &lt;code&gt;.asp&lt;/code&gt;, &lt;code&gt;.cgi&lt;/code&gt;, or URLs with query strings (e.g., &lt;code&gt;article.cgi?25&lt;/code&gt;). Without this option, these files might be saved locally without an appropriate extension, causing problems when trying to view them later.&lt;/p&gt;&lt;/li&gt;&lt;li&gt;&lt;p&gt;&lt;strong&gt;Mirroring dynamic content&lt;/strong&gt;:&lt;br/&gt;When mirroring a website, you may come across dynamic URLs (e.g., &lt;code&gt;http://example.com/page.asp&lt;/code&gt; or &lt;code&gt;http://example.com/index.cgi?25&lt;/code&gt;). Without the &lt;code&gt;.html&lt;/code&gt; extension, some web servers (e.g., Apache) might not serve these files correctly, especially when trying to open them in a browser directly from the local filesystem.&lt;/p&gt;&lt;/li&gt;&lt;/ol&gt;&lt;/div&gt;&lt;/div&gt;&lt;/div&gt;&lt;/div&gt;&lt;/div&gt;&lt;/div&gt;" style="rounded=0;whiteSpace=wrap;html=1;" vertex="1" parent="1">
          <mxGeometry x="860" y="840" width="660" height="310" as="geometry" />
        </mxCell>
        <mxCell id="-b_9_V1KJLMPMeQgucEA-14" value="&lt;div&gt;--convert-link&lt;/div&gt;&lt;div&gt;if the downloaded file /foo/doc.html links to /bar/img.gif, also downloaded, then the link in&lt;/div&gt;&lt;div&gt;&amp;nbsp; &amp;nbsp; &amp;nbsp; &amp;nbsp; &amp;nbsp; &amp;nbsp; &amp;nbsp; &amp;nbsp;doc.html will be modified to point to ../bar/img.gif.&amp;nbsp; This kind of transformation works reliably for&lt;/div&gt;&lt;div&gt;&amp;nbsp; &amp;nbsp; &amp;nbsp; &amp;nbsp; &amp;nbsp; &amp;nbsp; &amp;nbsp; &amp;nbsp;arbitrary combinations of directories.&lt;/div&gt;&lt;div&gt;&lt;br&gt;&lt;/div&gt;&lt;div&gt;&amp;nbsp; &amp;nbsp; &amp;nbsp; &amp;nbsp; &amp;nbsp; &amp;nbsp;•&amp;nbsp; &amp;nbsp;The links to files that have not been downloaded by Wget will be changed to include host name and&lt;/div&gt;&lt;div&gt;&amp;nbsp; &amp;nbsp; &amp;nbsp; &amp;nbsp; &amp;nbsp; &amp;nbsp; &amp;nbsp; &amp;nbsp;absolute path of the location they point to.&lt;/div&gt;" style="rounded=0;whiteSpace=wrap;html=1;" vertex="1" parent="1">
          <mxGeometry x="870" y="590" width="380" height="230" as="geometry" />
        </mxCell>
      </root>
    </mxGraphModel>
  </diagram>
</mxfile>
